<?xml version="1.0" encoding="UTF-8"?>
<svg id="_Слой_2" data-name="Слой 2" xmlns="http://www.w3.org/2000/svg" viewBox="0 0 423.1922 484.6923">
  <defs>
    <style>
      .cls-1 {
        stroke-width: 0px;
      }
    </style>
  </defs>
  <g id="_Слой_1-2">
    <path class="cls-1" d="m197.58.5227c-9.6,1.5-27.9,7.8-39.3,13.6-29,14.7-71.7,49.4-88.7,72-5.9,7.7-13.8,23.8-16.7,33.9-2,6.9-3.87,9.61-3.2,24.17.33,16.78,1.2,16.43,3.8,24.33,3.61,10.96,9.28,21.18,15.54,30.83,3.19,4.92,6.56,9.72,9.98,14.48,1.71,2.38,3.43,4.75,5.14,7.12,1.62,2.24,2.39,4.22,5.36,2.46,12.91-7.66,25.39-16.06,37.34-25.15,3.75-2.85-.39-5.5-2.29-8.17-1.55-2.17-3.06-4.37-4.26-6.76-5.88-8.24-12.36-16.63-16.46-25.96-4.5-10.25-3.5-21.82,1.5-31.73,4.01-7.96,10.07-14.69,16.37-20.99,16.21-16.21,34.53-30.3,54.35-41.81,6.97-4.05,14.24-7.83,22.1-9.81,3.31-.84,7-1.63,9.77.87,4.96,4.46,2.44,14.43,1.19,19.81-1.37,5.92-3.31,11.71-5.41,17.41-7.58,20.53-20.1,61.7-29.6,90.9-9.4,29.1-19.5,60.1-22.3,68.8l-5.2,15.7-15,7.4C76.9,300.8227,12.6,362.9227,1.7,399.5227c-1,3.2-1.7,9-1.7,13.9,0,7.4.4,9.2,3.1,14.7,3.8,7.7,11,14.4,18.8,17.6,5.4,2.2,6.9,2.3,27.7,2.1,33.6-.2,49.2-3.7,67-14.8,18.7-11.8,32.1-25.6,40.4-41.5,5.3-10.1,13.4-31.9,21.7-58.3.89-2.83,1.77-5.66,2.66-8.5,1.32-4.2,2.63-8.41,3.95-12.61.05-.17.11-.35.24-.47.19-.17.47-.18.73-.18,3.04.03,6.08.06,9.12.06,1.96,0,3.93.02,5.9.15,1.17.08,3.18-.17,4.01.86.2.25.3.57.4.88.88,2.19,1.4,4.58,2.15,6.82.79,2.35,1.66,4.69,2.69,6.95,1.47,3.22,3.26,6.28,5.28,9.18,2.67,3.84,5.67,7.45,8.72,10.99,4.59,5.31,9.35,10.48,14.11,15.64,1.15,1.25,2.3,2.49,3.45,3.73,9.3,10.02,18.62,20.03,27.7,30.26,2.39,2.69,4.77,5.4,7.07,8.17,2.98,3.6,7.27,6.99,6.26,12.19-.44,2.24-1.57,4.27-2.69,6.26-1.16,2.07-2.34,4.16-3.99,5.87-3.92,4.06-9.08,3.07-14.2,3.24-4.06.13-8.12.21-12.18.29-13.46.24-26.92.36-40.38.47-2.33.02-4.66.04-7,.06l-68.9.5-7.8,24c-4.3,13.2-7.6,24.6-7.4,25.3.89,2.29,21.83.99,23.95,1.01,17.63.21,35.26.18,52.89.07,18.4-.11,36.8-.3,55.19-.69,12.85-.28,25.84.82,38.24-3.28,11.11-3.68,21.17-10.42,28.91-19.18,10.02-11.36,16.13-25.99,17.72-41.05.91-8.65.29-17.67-2.87-25.84-3.43-8.89-10.29-15.12-16.52-22.05-7.73-8.6-15.5-17.16-23.31-25.69-18.3-20-34.1-37.7-35.2-39.4-3-4.7-2.6-12.8.8-19.5,5.9-11.4,24.5-26.9,44.4-37,13.2-6.6,37.4-16.6,50.2-20.6,28.31-9.16,22.33,1.28,12.8,15.1-1.2,2.1-12.9,18.8-26.1,37.2-4.51,6.3-8.97,12.63-13.36,19.02-1.81,2.63-3.67,5.24-5.43,7.9-.83,1.25-5.12,6.68-3.65,7.74,12.11,8.64,24.37,17.07,36.77,25.27.59.39,1.31,1.03,1.99,1.22,1.05.3,1.04.08,1.8-.79,1.19-1.36,2.35-2.75,3.49-4.16,2.34-2.89,4.6-5.84,6.8-8.84,4.41-5.98,8.61-12.11,12.94-18.15.29-.4,1.44-1.55,1.44-2.02,33.8-47,40.6-61.2,40.7-84.3.1-15.2-3.5-25-13-35.1-8-8.5-18.5-12.9-34.1-14.1-29.8-2.4-92.4,22.2-129,50.7-12.13,9.41-22.43,19.74-31.66,31.97-.16.21-.32.42-.54.55-.32.19-.71.19-1.08.19-3.63-.01-7.26,0-10.89-.04,1.54-11.23,6.65-21.78,10.16-32.47,32.7-99.5,52.2-160.2001,53.1-165.2001,1.5-7.9.6-20.5-2-27.8-5.3-15-19.7-27.6-36.8-32-7.3002-1.9001-22.1002-2.6001-29.8002-1.5001Zm-77.79,349.58c-11.69,34.74-30.7,49.09-62.76,60.57-18.65,6.68-1.94-31.81,20.21-46.48,23.7-15.4,47.24-28.03,42.55-14.09Z"/>
  </g>
</svg>